<svg width="160" height="160" viewBox="0 0 160 160" fill="none" xmlns="http://www.w3.org/2000/svg">
<path d="M57.0449 149.466C63.2444 151.962 69.97 153.442 77.0321 153.689C86.5895 154.023 95.678 152.047 103.803 148.293C94.0598 144.465 85.2359 138.867 77.7047 131.907C72.8231 139.723 65.6028 145.897 57.0449 149.466Z" fill="#FF9100"/>
<path d="M77.7038 131.909C60.5129 116.01 50.0841 92.9981 50.9654 67.7578C50.9942 66.9384 51.0374 66.1192 51.0881 65.3003C48.0091 64.504 44.7947 64.0181 41.487 63.9026C36.7523 63.7373 32.167 64.3245 27.8382 65.5434C23.2491 73.5821 20.4798 82.8056 20.1348 92.685C19.2444 118.181 34.6739 140.459 57.0438 149.469C65.6019 145.899 72.8219 139.733 77.7038 131.909Z" fill="#FFC400"/>
<path d="M77.704 131.909C81.7008 125.512 84.124 118.014 84.4061 109.934C85.1483 88.6825 70.8616 70.4009 51.0883 65.2996C51.0376 66.1185 50.9944 66.9377 50.9656 67.7572C50.0843 92.9974 60.5131 116.009 77.704 131.909Z" fill="#FF9100"/>
<path d="M82.1949 5.56226C70.9333 14.5842 62.0405 26.4805 56.6599 40.1848C53.5797 48.0344 51.6439 56.4662 51.0789 65.3048C70.8522 70.4062 85.1391 88.6878 84.397 109.939C84.1149 118.019 81.6845 125.51 77.6946 131.914C85.2253 138.881 94.0495 144.472 103.793 148.3C123.349 139.26 137.225 119.807 138.028 96.7992C138.549 81.8923 132.821 68.6062 124.728 57.3918C116.181 45.5312 82.1949 5.56226 82.1949 5.56226Z" fill="#DD2C00"/>
</svg>
