<svg width="130" height="130" viewBox="0 0 130 130" fill="none" xmlns="http://www.w3.org/2000/svg">
<path d="M100.478 69.0649C100.66 88.7383 117.736 95.285 117.925 95.3683C117.781 95.8298 115.197 104.698 108.929 113.858C103.51 121.777 97.8871 129.667 89.0284 129.831C80.3238 129.991 77.5248 124.669 67.573 124.669C57.6242 124.669 54.5144 129.668 46.2745 129.991C37.7236 130.315 31.2119 121.428 25.7488 113.537C14.585 97.3976 6.05363 67.93 17.5092 48.039C23.2 38.161 33.37 31.9058 44.4087 31.7454C52.8055 31.5852 60.7308 37.3945 65.8641 37.3945C70.9941 37.3945 80.6251 30.4084 90.7501 31.4344C94.9888 31.6108 106.887 33.1465 114.527 44.3296C113.911 44.7112 100.33 52.6175 100.478 69.0649ZM84.1184 20.7565C88.6582 15.2613 91.7137 7.61149 90.8801 0C84.3364 0.263001 76.4236 4.36053 71.73 9.85269C67.5236 14.7162 63.8397 22.5007 64.8337 29.9615C72.1274 30.5258 79.5784 26.2551 84.1184 20.7565Z" fill="white"/>
</svg>
