<svg viewBox="0 0 512 512" xmlns="http://www.w3.org/2000/svg"><rect fill="#fff" height="512" rx="256" width="512"/><g fill="#1d1d1b"><path d="m370.58 384.29h-40.2l-18.85-59.05h-112.71l-19.06 59.05h-38.33l89.91-270.81h50.56zm-69.62-92-45.79-144.83-45.79 144.83z"/><path d="m472.51 241.7h8.91v28.8h-8.91c-9.53 0-17.47.97-23.83 2.9-6.35 1.93-11.43 4.73-15.23 8.39s-6.46 8.15-7.98 13.47-2.28 11.36-2.28 18.13v47.86c0 25.42-6.49 44.37-19.48 56.88-12.98 12.5-32.81 18.75-59.47 18.75h-15.33v-29.01h12.43c31.63 0 47.45-15.82 47.45-47.45v-47.45c0-34.81 14.71-53.8 44.13-56.98-29.42-3.17-44.13-22.16-44.13-56.97v-47.45c0-31.63-15.82-47.45-47.45-47.45h-12.43v-29.01h15.33c26.66 0 46.48 6.25 59.47 18.75 12.98 12.5 19.48 31.46 19.48 56.88v47.86c0 6.77.76 12.81 2.28 18.13s4.18 9.81 7.98 13.47 8.87 6.46 15.23 8.39c6.35 1.93 14.3 2.9 23.83 2.9h8.91v28.8h-8.91"/><path d="m39.49 241.7h-8.91v28.8h8.91c9.53 0 17.47.97 23.83 2.9 6.35 1.93 11.43 4.73 15.23 8.39s6.46 8.15 7.98 13.47 2.28 11.36 2.28 18.13v47.86c0 25.42 6.49 44.37 19.48 56.88 12.98 12.5 32.81 18.75 59.47 18.75h15.33v-29.01h-12.43c-31.63 0-47.45-15.82-47.45-47.45v-47.45c0-34.81-14.71-53.8-44.13-56.98 29.42-3.17 44.13-22.16 44.13-56.97v-47.45c0-31.63 15.82-47.45 47.45-47.45h12.43v-29.01h-15.33c-26.66 0-46.48 6.25-59.47 18.75-12.98 12.5-19.48 31.46-19.48 56.88v47.86c0 6.77-.76 12.81-2.28 18.13s-4.18 9.81-7.98 13.47-8.87 6.46-15.23 8.39c-6.35 1.93-14.3 2.9-23.83 2.9h-8.91v28.8h8.91"/></g></svg>