<svg width="160" height="160" viewBox="0 0 160 160" fill="none" xmlns="http://www.w3.org/2000/svg">
<path d="M157.324 63.9446L157.105 63.3711L135.326 6.54832C134.89 5.43507 134.108 4.49727 133.089 3.84954C132.074 3.19847 130.883 2.89149 129.675 2.95559C128.474 3.01968 127.32 3.45823 126.379 4.20714C125.445 4.96281 124.77 5.98497 124.453 7.13869L109.748 52.1442H50.2534L35.5484 7.13869C35.2313 5.98497 34.5566 4.96282 33.6222 4.20714C32.681 3.45824 31.5273 3.01968 30.3263 2.95559C29.1187 2.89149 27.9277 3.19847 26.9124 3.84954C25.8936 4.49727 25.1109 5.43507 24.6757 6.54832L2.89669 63.3745L2.67737 63.9446C-3.77611 80.7783 1.72265 99.808 16.0937 110.677C16.1206 110.694 16.1442 110.714 16.1712 110.735L16.3636 110.88L49.5382 135.715L65.9468 148.136L75.9323 155.686C78.3375 157.508 81.6637 157.508 84.069 155.686L94.0545 148.136L110.46 135.715L143.83 110.735C143.86 110.711 143.887 110.691 143.918 110.667C158.279 99.7979 163.774 80.7749 157.324 63.9446Z" fill="#E24329"/>
<path d="M157.324 63.7321L157.105 63.158C146.299 65.3801 136.347 69.956 127.826 76.3386C127.688 76.4399 101.931 95.9391 80 112.537C96.2839 124.864 110.459 135.579 110.459 135.579L143.83 110.572C143.86 110.548 143.887 110.528 143.918 110.504C158.279 99.6235 163.774 80.5802 157.324 63.7321Z" fill="#FC6D26"/>
<path d="M49.6843 135.785L66.0148 148.165L75.9528 155.691C78.3466 157.507 81.657 157.507 84.0509 155.691L93.9887 148.165L110.316 135.785C110.316 135.785 96.208 125.115 80.0018 112.842C63.7922 125.115 49.6843 135.785 49.6843 135.785Z" fill="#FCA326"/>
<path d="M32.1713 76.3359C23.6534 69.9563 13.7051 65.3768 2.89667 63.158L2.67735 63.7287C-3.77608 80.581 1.72263 99.6319 16.0935 110.513C16.1205 110.53 16.1441 110.55 16.1711 110.571L16.3634 110.716L49.5378 135.579C49.5378 135.579 63.713 124.863 80 112.536C58.0693 95.9372 32.3097 76.4372 32.1713 76.3359Z" fill="#FC6D26"/>
</svg>
