<svg width="142" height="160" viewBox="0 0 142 160" fill="none" xmlns="http://www.w3.org/2000/svg">
<g clip-path="url(#clip0_161_773)">
<path d="M77.2034 28.6222L102.596 43.2444C103.51 43.7556 103.532 45.2 102.596 45.6889L72.4144 63.0667C71.5012 63.6 70.432 63.5556 69.5633 63.0667L39.4036 45.6889C38.4904 45.1778 38.4458 43.7333 39.4036 43.2444L64.7743 28.6222V0L0 37.3111V111.933L24.8584 97.6222V68.3778C24.8361 67.3333 26.0834 66.6 26.9967 67.1556L57.1787 84.5333C58.0919 85.0667 58.6042 86.0222 58.6042 87V121.756C58.6265 122.8 57.4014 123.533 56.4882 122.978L31.0952 108.356L6.21459 122.689L70.9889 160L135.763 122.689L110.927 108.378L85.5341 123C84.6431 123.533 83.3735 122.844 83.418 121.778V87.0222C83.418 85.9778 83.9972 85.0444 84.8436 84.5556L115.003 67.1778C115.894 66.6222 117.164 67.3333 117.142 68.4V97.6444L142 111.956V37.3111L77.2034 0V28.6222Z" fill="black"/>
</g>
<defs>
<clipPath id="clip0_161_773">
<rect width="142" height="160" fill="white"/>
</clipPath>
</defs>
</svg>
