<svg width="200" height="74" viewBox="0 0 200 74" fill="none" xmlns="http://www.w3.org/2000/svg">
<path d="M199.945 24.811C199.832 24.0632 199.524 23.4396 199.025 22.9345C198.525 22.4322 197.893 22.1303 197.134 22.0258C196.375 21.9243 195.661 22.1557 194.998 22.7228C193.776 23.75 192.509 24.8166 191.197 25.9228C189.885 27.0289 188.556 28.1153 187.204 29.1848C185.852 30.2543 184.492 31.2899 183.121 32.2973C181.749 33.3018 180.409 34.2048 179.1 35.0062C178.696 35.2489 178.27 35.5028 177.819 35.7681C177.367 36.0333 177.003 36.1829 176.724 36.2139C176.444 36.2478 176.32 36.1152 176.351 35.8132C176.382 35.5141 176.707 34.9413 177.325 34.0919C178.49 32.4468 179.825 30.8976 181.326 29.4416C182.827 27.9855 184.408 26.6085 186.067 25.3133C186.792 24.7574 187.167 24.0914 187.196 23.3211C187.224 22.5507 187.023 21.865 186.6 21.2668C186.174 20.6686 185.601 20.2537 184.876 20.0195C184.151 19.7853 183.4 19.9292 182.621 20.4485C181.51 21.1595 180.341 22.0117 179.125 23.0107C177.906 24.0096 176.741 25.1073 175.629 26.3037C174.517 27.5002 173.51 28.7587 172.607 30.0793C172.322 30.4969 172.065 30.9174 171.82 31.335C171.072 32.0574 170.318 32.7911 169.556 33.5473C168.295 34.7946 166.929 35.912 165.456 36.8912C164.737 37.354 164.181 37.4584 163.789 37.2016C163.394 36.9448 163.371 36.3522 163.718 35.4238C164.017 34.6422 164.288 33.9903 164.528 33.4739C164.768 32.9576 165.047 32.4355 165.363 31.9135C165.62 31.4902 165.928 31.0133 166.283 30.4828C167.815 29.8987 169.302 29.213 170.674 28.3241C173.366 26.5803 175.671 24.1902 177.788 21.7973C180.688 18.5183 186.501 10.4564 181.394 6.67235C176.45 3.00964 169.494 9.97952 166.515 13.4757C163.188 17.3811 161.288 21.9751 160.027 26.8342C159.528 27.0628 159.161 27.3958 158.913 27.7908C158.368 27.9234 157.837 28.0363 157.332 28.1181C156.13 28.3157 155.233 28.3495 154.643 28.2197C154.468 27.3534 154.146 26.5295 153.675 25.7506C153.424 25.3387 153.136 24.9803 152.812 24.6671C155.744 22.7003 158.455 20.44 160.62 17.5984C162.493 15.1378 163.995 12.268 164.61 9.21481C165.098 6.79651 165.645 2.90241 163.735 0.966642C161.684 -1.11304 158.565 0.605449 156.621 1.99096C154.271 3.66712 152.451 5.86249 150.797 8.2046C147.123 13.4137 143.579 19.0234 141.612 25.1298C141.302 25.5305 141.155 25.9933 141.135 26.4617C140.317 27.3478 139.496 28.2338 138.677 29.1171C137.565 30.3192 136.363 31.4168 135.071 32.4073C134.289 33.0084 133.733 33.3554 133.403 33.4457C133.073 33.536 132.884 33.4598 132.839 33.22C132.794 32.9801 132.867 32.6274 133.065 32.1618C133.259 31.6962 133.508 31.208 133.81 30.6973C134.23 29.9749 134.696 29.2412 135.206 28.4878C135.717 27.7372 136.214 26.9556 136.694 26.1429C137.173 25.3302 137.58 24.5119 137.91 23.6851C138.24 22.8583 138.435 22.0258 138.497 21.1821C138.556 20.2791 138.435 19.506 138.135 18.8598C137.834 18.2136 137.413 17.6492 136.874 17.1695C136.332 16.6898 135.717 16.2891 135.026 15.9759C134.335 15.6598 133.612 15.3833 132.862 15.1406C132.802 14.5085 132.56 13.9385 132.139 13.4278C131.719 12.917 131.118 12.5699 130.336 12.3893C129.704 12.2708 129.075 12.3075 128.443 12.5022C127.81 12.6969 127.232 13.0045 126.707 13.4278C126.182 13.8482 125.745 14.359 125.401 14.96C125.054 15.5611 124.881 16.1762 124.881 16.8083C124.881 17.7705 125.107 18.5212 125.559 19.0629C125.076 20.2961 124.56 21.4446 124.004 22.5112C123.448 23.5778 122.869 24.5993 122.268 25.5757C121.854 26.2501 121.425 26.9076 120.99 27.5594C120.44 28.0448 119.845 28.533 119.204 29.0239C118.304 29.7153 117.347 30.37 116.34 30.9851C115.332 31.6003 114.333 32.0884 113.343 32.4496C112.353 32.8108 111.396 32.9971 110.479 33.014C109.562 33.0309 108.743 32.7657 108.021 32.2239C107.601 31.8937 107.397 31.4281 107.412 30.8271C107.426 30.226 107.553 29.5798 107.795 28.8885C109.328 29.34 110.854 29.5121 112.372 29.4077C113.89 29.3033 115.414 28.7982 116.949 27.898C117.881 27.3563 118.767 26.6423 119.61 25.7563C120.451 24.8702 121.12 23.8995 121.617 22.8498C122.113 21.7973 122.384 20.7024 122.429 19.5596C122.474 18.4167 122.181 17.305 121.549 16.2242C120.889 15.0814 119.963 14.2489 118.778 13.7212C117.59 13.1964 116.365 13.0073 115.104 13.1569C114.023 13.2782 112.99 13.5689 112.014 14.0345C111.038 14.5001 110.112 15.0701 109.24 15.7473C108.368 16.4245 107.564 17.1751 106.827 18.0019C106.091 18.8287 105.422 19.664 104.821 20.5049C104.22 21.3768 103.656 22.3532 103.131 23.4368C103.1 23.4988 103.074 23.5609 103.046 23.623C102.86 23.7669 102.677 23.9701 102.504 24.2438C102.143 24.7743 101.717 25.3866 101.229 26.0752C100.741 26.7637 100.222 27.4635 99.6742 28.1689C99.1267 28.8772 98.5454 29.5629 97.9359 30.2289C97.3236 30.8948 96.7 31.4564 96.0651 31.9135C95.2242 32.5315 94.657 32.7064 94.355 32.4383C94.0531 32.1703 94.0136 31.5466 94.2309 30.5703C94.3889 29.6278 94.7106 28.4906 95.1931 27.1531C95.6757 25.8184 96.1977 24.478 96.7564 23.1376C97.3151 21.7973 97.8767 20.5331 98.4439 19.3423C99.011 18.1515 99.471 17.2175 99.8237 16.5346C100.456 16.529 101.122 16.4923 101.827 16.4245C102.53 16.3568 103.207 16.2129 103.859 15.9956C104.508 15.7783 105.103 15.4821 105.639 15.1068C106.176 14.7315 106.59 14.2348 106.89 13.6168C107.05 13.2472 107.031 12.8803 106.827 12.5135C106.627 12.1495 106.272 11.9802 105.761 12.0084C105.431 12.0253 105.084 12.0084 104.72 11.952C104.356 11.8984 104.006 11.8193 103.667 11.7178C104.056 11.1534 104.392 10.5495 104.672 9.90051C104.951 9.25431 105.013 8.57143 104.852 7.85751C104.691 7.11538 104.361 6.58205 103.862 6.26319C103.362 5.94432 102.812 5.77784 102.208 5.76655C101.604 5.75526 100.986 5.87096 100.354 6.11645C99.7193 6.36195 99.1888 6.678 98.7599 7.06176C98.2153 7.54429 97.7102 8.08326 97.2474 8.68148C96.7846 9.27971 96.3585 9.88922 95.9719 10.5128C95.2157 10.4649 94.4651 10.6031 93.7145 10.9305C92.9667 11.2578 92.3318 11.6613 91.8182 12.141C91.3018 12.6207 90.9548 13.1287 90.7742 13.6648C90.5936 14.201 90.6952 14.6553 91.0761 15.0249C91.3301 15.2535 91.6461 15.4143 92.0299 15.5131C92.4108 15.6119 92.8143 15.6796 93.2376 15.7163C92.7015 16.9184 92.2274 18.0217 91.8182 19.0234C91.4062 20.0252 91.0366 20.9564 90.7093 21.817C90.3791 22.6777 90.0885 23.4988 89.8289 24.2805C89.7922 24.3905 89.764 24.4978 89.7301 24.6078C89.4112 25.1524 89.0895 25.714 88.765 26.2953C88.0568 27.5594 87.2384 28.7785 86.3129 29.9467C84.6085 32.0659 83.1327 31.8458 82.7884 31.9643C82.4442 32.08 82.3228 31.7921 82.4272 31.0952C82.5091 30.5872 82.636 30.0483 82.811 29.4754C82.986 28.9026 83.175 28.3354 83.3838 27.7711C83.5898 27.2067 83.7986 26.6818 84.0046 26.1937C84.2106 25.7083 84.3715 25.2822 84.4815 24.9239C84.7327 24.1986 84.8201 23.5355 84.7439 22.9373C84.6678 22.3391 84.4618 21.8537 84.1231 21.4756C83.7845 21.1003 83.35 20.8435 82.8166 20.7081C82.2833 20.5726 81.6682 20.6065 80.974 20.8068C80.3955 20.9874 79.8848 21.2527 79.4333 21.6026C78.9846 21.9553 78.598 22.356 78.2763 22.8047C77.9547 23.2533 77.6668 23.733 77.4185 24.2438C77.1702 24.7545 76.9388 25.2455 76.73 25.7196C75.8806 27.7316 74.9748 29.498 74.0126 31.0133C73.0475 32.5286 72.2264 33.5699 71.5435 34.1399C70.8606 34.7099 70.4373 34.6958 70.2709 34.1004C70.1044 33.505 70.4119 32.1167 71.1936 29.9326C71.6423 28.6769 72.232 27.3986 72.9657 26.0977C73.6965 24.7997 74.5628 23.5948 75.5646 22.4858C76.5663 21.3768 77.7035 20.4485 78.9762 19.6978C80.2488 18.9472 81.6541 18.507 83.1919 18.3772C83.7055 18.3349 84.1203 18.1515 84.4364 17.8242C84.7524 17.4997 84.9528 17.1272 85.0374 16.7124C85.1221 16.2976 85.0826 15.8828 84.9217 15.4708C84.7609 15.0588 84.4561 14.7315 84.0075 14.4831C82.8731 13.8849 81.7105 13.5943 80.5169 13.6084C79.3232 13.6225 78.155 13.8369 77.0122 14.2546C75.8693 14.6722 74.7801 15.2394 73.7473 15.9561C72.7117 16.6729 71.8003 17.4348 71.0158 18.239C69.2832 19.9716 67.8272 21.9327 66.6476 24.1225C65.4681 26.3122 64.6159 28.6091 64.0967 31.0161C63.8879 31.9473 63.7609 33.0112 63.7101 34.202C63.6622 35.3928 63.7835 36.5187 64.077 37.5769C64.3704 38.6379 64.8671 39.5409 65.5725 40.2858C66.278 41.0336 67.2938 41.423 68.6173 41.4597C69.7911 41.4964 70.7675 41.2057 71.5463 40.5877C72.3251 39.9698 72.9826 39.174 73.5216 38.2061C74.0606 37.2383 74.5064 36.197 74.862 35.0796C75.2175 33.9649 75.5589 32.9293 75.8863 31.9727C75.8242 32.5681 75.7988 33.1579 75.8101 33.7364C75.8214 34.3177 75.8834 34.8877 75.9963 35.4464C76.1402 36.1547 76.4055 36.7811 76.7949 37.3314C77.1843 37.8816 77.6414 38.3162 78.1663 38.6407C78.6912 38.9624 79.2837 39.1571 79.9412 39.222C80.5987 39.2869 81.2703 39.2051 81.9616 38.9708C82.9916 38.6068 84.4307 37.7151 85.5199 36.6259C86.3975 35.7483 87.6335 34.5999 88.6126 33.4965C88.7199 34.075 88.8779 34.6337 89.1008 35.1642C89.4648 36.0333 90.0828 36.7444 90.9576 37.2975C92.0496 38.0199 93.2235 38.271 94.4764 38.0509C95.7293 37.8308 96.8439 37.3342 97.8259 36.5582C98.6329 35.912 99.3525 35.1586 99.9817 34.2951C100.512 33.5699 100.983 32.7882 101.424 31.9727C101.494 32.5032 101.613 33.0168 101.774 33.5106C102.104 34.518 102.654 35.4267 103.419 36.2393C104.186 37.052 105.213 37.6813 106.509 38.1328C107.589 38.5222 108.673 38.6971 109.754 38.652C110.834 38.6068 111.901 38.4206 112.954 38.0876C114.006 37.7575 115.019 37.3144 115.996 36.7585C116.972 36.2026 117.881 35.5931 118.724 34.9328C120.115 33.7928 121.368 32.4891 122.483 31.0246C122.714 30.7904 122.949 30.5477 123.186 30.2909C123.756 29.6589 124.365 28.9675 125.011 28.2169C125.657 27.4663 126.295 26.6931 126.927 25.8946C127.559 25.0988 128.18 24.2861 128.798 23.4593C129.413 22.6325 129.995 21.8283 130.534 21.0467C130.773 21.1088 131.089 21.168 131.479 21.2273C131.868 21.2865 132.066 21.4389 132.066 21.6788C132.066 22.1303 131.803 22.7764 131.276 23.6174C130.751 24.4583 130.178 25.4064 129.563 26.4589C128.948 27.5115 128.375 28.6148 127.85 29.7717C127.325 30.9287 127.06 32.0179 127.06 33.0394C127.06 34.3318 127.404 35.4972 128.098 36.5328C128.79 37.5684 129.78 38.209 131.073 38.4488C132.184 38.6576 133.242 38.5532 134.25 38.1328C134.368 38.082 134.484 38.0227 134.6 37.9691C134.445 38.2654 134.261 38.6153 134.052 39.0104L140.384 38.8975C140.957 38.0114 141.575 37.1141 142.247 36.1998C143.088 35.0542 143.923 33.948 144.758 32.8785C145.591 31.8091 146.307 30.9005 146.906 30.1499C147.213 30.638 147.687 31.1177 148.331 31.5833C147.893 32.4327 146.903 34.0863 145.774 35.8979L145.859 35.9035C145.052 37.2495 144.253 38.5081 143.488 39.6566C141.973 41.9281 140.588 43.7623 139.515 44.9503C139.335 45.1506 139.165 45.3284 139.005 45.4892C138.071 46.5305 137.1 47.5068 136.09 48.4014C135.621 48.8021 135.317 48.8726 135.181 48.6158C135.046 48.359 135.079 47.9837 135.285 47.4927C135.387 47.2134 135.858 46.3725 136.468 45.334L130.957 45.3058C130.604 46.1439 130.364 46.8352 130.325 47.2444C130.203 48.8331 130.423 50.1678 130.982 51.2429C131.541 52.3209 132.334 53.0602 133.361 53.4637C134.388 53.8672 135.593 53.9152 136.976 53.602C138.356 53.2887 139.812 52.541 141.338 51.353C141.968 50.8676 142.605 50.3202 143.249 49.722C144.581 48.4296 145.853 46.9255 147.021 45.382C147.724 44.4565 148.39 43.5168 149.005 42.6025C149.558 41.7786 150.075 40.9772 150.54 40.2209C150.54 40.2209 150.535 40.2209 150.532 40.2209C150.619 40.0798 150.71 39.9416 150.794 39.8061C152.391 37.1875 153.368 35.2461 153.368 35.2461L153.382 35.2686C153.698 34.5603 153.972 33.8549 154.192 33.1523C154.705 33.1523 155.399 33.0337 156.274 32.7995C157.146 32.5653 158.046 32.2465 158.969 31.8345C158.675 32.5569 158.405 33.3441 158.156 34.1935C157.908 35.0429 157.758 35.8951 157.708 36.7501C157.654 37.6051 157.75 38.4262 157.995 39.2107C158.238 39.9952 158.704 40.6837 159.395 41.2763C160.134 41.9648 160.978 42.3711 161.935 42.4953C162.888 42.6195 163.913 42.4643 165.005 42.0269C166.097 41.5923 167.226 40.8586 168.385 39.8259C168.958 39.3151 169.528 38.7366 170.093 38.0876C170.2 38.6774 170.4 39.2389 170.699 39.7666C171.024 40.3338 171.487 40.8163 172.096 41.2142C172.833 41.7532 173.645 42.0071 174.534 41.9789C175.42 41.9479 176.244 41.7334 177.006 41.3327C178.293 40.6809 179.509 39.8343 180.66 38.7931C181.809 37.7546 182.932 36.7247 184.032 35.7088C183.66 36.3522 183.239 37.0153 182.768 37.7039C182.297 38.3924 181.806 39.0611 181.295 39.713C180.784 40.3648 180.279 40.9856 179.777 41.5782C179.275 42.1708 178.809 42.6759 178.38 43.0963C177.774 43.6889 177.187 44.2674 176.611 44.8374L176.605 44.8205C176.586 44.8487 176.566 44.8741 176.546 44.8995C176.529 44.9164 176.515 44.9305 176.498 44.9475C175.953 45.4864 175.451 45.9238 174.986 46.2709C173.682 46.9255 172.127 46.8409 170.773 46.5277C165.228 43.9147 159.116 41.4625 153.176 40.5652C152.834 40.5144 152.49 40.4721 152.146 40.4241C151.071 42.2159 149.886 43.9739 148.768 45.5344C149.234 45.5767 149.699 45.6162 150.165 45.6642C155.789 46.2314 161.864 48.4493 167.336 50.9438C174.018 55.6054 178.942 51.0539 178.942 51.0539L178.925 51.0115C179.142 50.8648 179.374 50.704 179.627 50.5177C180.262 50.0521 181.002 49.4454 181.848 48.692C182.695 47.9414 183.629 47.0046 184.653 45.8871C185.677 44.7669 186.792 43.4491 188 41.9338C189.171 40.441 190.252 39.0188 191.236 37.6672C192.221 36.3127 193.158 35.0203 194.047 33.79C194.936 32.5597 195.805 31.3689 196.649 30.2232C197.492 29.0776 198.364 27.9799 199.256 26.9302C199.846 26.2614 200.086 25.5531 199.973 24.8053L199.945 24.811ZM168.431 20.0957C169.5 18.2841 170.854 16.6842 172.373 15.2337C173.747 13.9188 175.798 11.7685 177.692 11.3255C177.737 11.3142 177.762 11.3058 177.796 11.2945C177.751 11.3509 177.709 11.4215 177.683 11.5287C177.57 11.983 177.441 12.4317 177.271 12.8691C176.93 13.7466 176.45 14.5678 175.934 15.3579C174.808 17.0792 173.377 18.5776 171.947 20.0449C170.414 21.6167 168.859 23.1235 166.932 24.2043C166.763 24.3002 166.588 24.3877 166.416 24.4752C166.958 22.9627 167.607 21.4897 168.431 20.0957ZM110.998 23.1264C111.54 22.435 112.124 21.7888 112.756 21.1878C113.117 20.8576 113.529 20.5049 113.995 20.1296C114.46 19.7543 114.949 19.4919 115.459 19.3395C115.821 19.221 116.137 19.2125 116.405 19.3169C116.676 19.4213 116.735 19.7317 116.585 20.2396C116.495 20.6911 116.3 21.1567 115.998 21.6364C115.696 22.119 115.442 22.4773 115.231 22.7172C114.39 23.7387 113.383 24.4752 112.209 24.9267C111.368 25.2286 110.465 25.333 109.503 25.2427C109.954 24.5203 110.451 23.8149 110.99 23.1235L110.998 23.1264ZM149.725 20.1945C150.904 18.0414 152.23 15.9618 153.568 13.8906C154.7 12.1382 155.823 10.3633 157.214 8.8C157.688 8.26668 158.58 7.27058 159.508 6.50304C159.497 6.69775 159.488 6.89528 159.463 7.08998C159.33 8.12841 159.025 9.18659 158.65 10.1629C157.829 12.3075 156.491 14.2715 154.911 15.9279C153.356 17.5617 151.59 18.9472 149.725 20.1945Z" fill="#DCEDE2"/>
<path d="M30.314 23.5412L30.4071 23.5017L30.3761 23.4058C30.314 23.434 30.2943 23.4791 30.314 23.544V23.5412Z" fill="#DCEDE2"/>
<path d="M51.077 36.8234C47.2817 35.8357 49.0622 34.7042 49.0622 34.7042C70.3698 14.5056 57.4684 2.95595 57.4684 2.95595C36.4544 -11.726 9.13355 33.313 9.13355 33.313C9.1138 33.3808 9.09405 33.4485 9.07712 33.5134C9.06583 33.5021 9.05454 33.4936 9.04325 33.4823C8.88523 33.7363 8.73003 33.9931 8.57201 34.2471C6.28916 32.8926 3.7326 31.888 1.224 30.9907C0.236369 30.638 -0.373143 31.9698 0.256122 32.6443C2.16085 34.6901 4.10508 36.8629 5.74173 39.1937L6.36535 40.1193C6.43872 40.2293 6.50926 40.3422 6.57981 40.4522C6.58828 40.4663 6.59674 40.4804 6.60521 40.4946C6.96076 41.0589 7.30219 41.6261 7.60977 42.2102C9.01504 44.8712 9.26618 48.0457 10.1184 50.9042C12.737 59.6773 18.3778 66.3706 27.1847 69.4436C29.112 70.0418 30.7515 69.2912 29.4055 67.2736C27.1988 63.9636 23.3414 61.5143 20.7227 58.5006C19.0776 56.6043 17.7965 54.7617 17.3225 52.2785C16.6227 48.6186 16.6085 44.7922 15.1327 41.3129C14.3567 39.4843 13.2393 37.9888 11.9046 36.7274C17.2688 29.3089 34.496 14.9402 34.496 14.9402C53.4078 1.88084 53.0579 15.5215 53.0579 15.5215C53.4078 26.2021 37.2388 37.8082 37.2388 37.8082C34.8459 38.7366 36.0706 39.6085 36.0706 39.6085C42.4931 39.4336 47.9787 41.8716 47.9787 41.8716C47.9787 41.8716 58.9527 45.0631 53.817 59.8635C48.6813 74.6639 26.499 56.0907 25.2715 55.2216C24.0468 54.3497 23.3442 54.1775 22.7037 54.6996C22.0603 55.2216 22.8194 56.3814 22.8194 56.3814C29.1233 65.7272 38.5792 71.0068 38.5792 71.0068C41.0314 72.5729 55.3323 77.9146 62.5703 63.2299C69.8082 48.5452 54.8639 37.8082 51.0714 36.8205L51.077 36.8234Z" fill="#DCEDE2"/>
<path d="M131.14 44.8487C131.637 44.8487 132.199 44.8431 132.788 44.8431C133.44 44.8431 134.092 44.8374 134.747 44.8431C135.441 44.8431 136.121 44.8516 136.733 44.86C137.439 44.8713 138.059 44.8854 138.511 44.908L138.491 44.9165C138.491 44.9165 138.5 44.9165 138.505 44.9165C139.975 43.1697 141.209 41.234 142.137 39.5945C141.468 39.5635 140.799 39.5352 140.131 39.5099C140.083 39.5099 140.035 39.5099 139.984 39.5099C138.486 39.4957 135.839 39.4675 133.827 39.4196C133.214 39.4054 132.658 39.3885 132.215 39.3716C127.435 39.4478 122.661 39.8118 117.889 40.1419C112.378 40.5229 106.878 41.028 101.404 41.7363C98.681 42.0043 94.3467 42.5094 89.6371 43.6015C89.2025 43.6833 88.72 43.8272 88.2826 43.926C82.0718 45.4695 75.4321 47.8399 71.1203 51.3191C71.1203 51.3191 69.9832 52.1657 70.4262 52.8909C70.8692 53.6161 71.6057 53.6951 73.0956 53.2888C73.6628 53.1364 85.9123 49.9082 94.643 48.1756C106.037 46.4035 118.685 45.0773 129.168 44.8685L129.185 44.86C129.185 44.86 129.591 44.8572 130.237 44.8515C130.536 44.8459 130.838 44.8431 131.138 44.8374C131.138 44.8374 131.138 44.8431 131.135 44.8459L131.14 44.8487Z" fill="#DCEDE2"/>
</svg>
