<svg width="206" height="54" viewBox="0 0 206 54" fill="none" xmlns="http://www.w3.org/2000/svg">
<g clip-path="url(#clip0_67_283)">
<path d="M119.894 6.15349V0L140.191 8.16279V13.186L119.894 21.3488V15.0698L131.744 10.6744L119.894 6.15349Z" fill="#A100FF"/>
<path d="M7.8164 54C3.52999 54 0 51.8651 0 47.093V46.8419C0 41.0651 5.04284 39.0558 11.2203 39.0558H14.12V37.9256C14.12 35.5395 13.1114 34.1581 10.59 34.1581C8.32069 34.1581 7.18605 35.4139 7.05998 37.1721H0.756426C1.26071 31.8977 5.42105 29.386 10.9682 29.386C16.6414 29.386 20.8017 31.7721 20.8017 37.6744V53.4977H14.3721V50.7349C13.1114 52.493 10.9682 54 7.8164 54ZM14.12 45.7116V43.4512H11.4725C8.19462 43.4512 6.55569 44.3302 6.55569 46.4651V46.7163C6.55569 48.3488 7.56426 49.4791 9.83354 49.4791C12.1028 49.3535 14.12 48.0977 14.12 45.7116ZM35.8042 54C29.2485 54 24.4578 49.9814 24.4578 41.9442V41.5674C24.4578 33.5302 29.5006 29.2605 35.8042 29.2605C41.2252 29.2605 45.6377 32.0232 46.142 38.1767H39.8384C39.4602 35.9163 38.1995 34.4093 35.9302 34.4093C33.1567 34.4093 31.1395 36.6698 31.1395 41.3163V42.0698C31.1395 46.8419 32.9045 48.9767 35.9302 48.9767C38.1995 48.9767 39.8384 47.3442 40.2166 44.707H46.2681C45.8898 50.2326 42.2338 54 35.8042 54ZM60.5141 54C53.9584 54 49.1677 49.9814 49.1677 41.9442V41.5674C49.1677 33.5302 54.2105 29.2605 60.5141 29.2605C65.9351 29.2605 70.3476 32.0232 70.8519 38.1767H64.5484C64.1701 35.9163 62.9094 34.4093 60.6401 34.4093C57.8666 34.4093 55.8495 36.6698 55.8495 41.3163V42.0698C55.8495 46.8419 57.6144 48.9767 60.6401 48.9767C62.9094 48.9767 64.5484 47.3442 64.9266 44.707H70.978C70.5998 50.2326 66.9437 54 60.5141 54ZM85.3501 54C78.5422 54 73.8776 49.9814 73.8776 42.0698V41.5674C73.8776 33.6558 78.7944 29.2605 85.224 29.2605C91.1493 29.2605 96.0661 32.5256 96.0661 40.4372V43.3256H80.5594C80.8115 47.5953 82.7026 49.2279 85.4761 49.2279C87.9976 49.2279 89.3843 47.8465 89.8886 46.2139H96.0661C95.3097 50.6093 91.5275 54 85.3501 54ZM80.6854 38.9302H89.5104C89.3843 35.4139 87.7454 33.907 85.0979 33.907C83.0808 34.0326 81.1897 35.1628 80.6854 38.9302ZM100.1 29.8884H106.782V33.4046C107.917 31.1442 110.312 29.386 113.968 29.386C118.255 29.386 121.154 32.0232 121.154 37.6744V53.4977H114.472V38.6791C114.472 35.9163 113.338 34.6605 110.942 34.6605C108.673 34.6605 106.782 36.0419 106.782 39.0558V53.4977H100.1V29.8884ZM133.383 22.7302V29.8884H137.922V34.786H133.383V45.9628C133.383 47.7209 134.14 48.6 135.778 48.6C136.787 48.6 137.417 48.4744 138.048 48.2233V53.3721C137.291 53.6233 135.905 53.8744 134.266 53.8744C129.097 53.8744 126.701 51.4884 126.701 46.7163V34.786H123.928V29.8884H126.701V25.493L133.383 22.7302ZM162.884 53.4977H156.328V49.9814C155.193 52.2419 152.924 54 149.394 54C145.108 54 141.956 51.3628 141.956 45.8372V29.8884H148.638V44.9581C148.638 47.7209 149.772 48.9767 152.042 48.9767C154.311 48.9767 156.202 47.4698 156.202 44.5814V29.8884H162.884V53.4977ZM167.801 29.8884H174.482V34.2837C175.869 31.1442 178.138 29.6372 181.668 29.6372V36.1674C177.13 36.1674 174.482 37.5488 174.482 41.4419V53.6233H167.801V29.8884ZM195.158 54C188.35 54 183.685 49.9814 183.685 42.0698V41.5674C183.685 33.6558 188.602 29.2605 195.032 29.2605C200.957 29.2605 205.874 32.5256 205.874 40.4372V43.3256H190.493C190.745 47.5953 192.636 49.2279 195.41 49.2279C197.931 49.2279 199.318 47.8465 199.823 46.2139H206C204.991 50.6093 201.335 54 195.158 54ZM190.367 38.9302H199.318C199.192 35.4139 197.553 33.907 194.906 33.907C192.889 34.0326 190.998 35.1628 190.367 38.9302Z" fill="black"/>
</g>
<defs>
<clipPath id="clip0_67_283">
<rect width="206" height="54" fill="white"/>
</clipPath>
</defs>
</svg>
