<svg width="413" height="120" viewBox="0 0 413 120" fill="none" xmlns="http://www.w3.org/2000/svg">
<g clip-path="url(#clip0_29_224)">
<path opacity="0.72" d="M60.2225 120H60.1589L27.8623 87.7129L46.2984 69.2118L97.024 120H60.2225Z" fill="white"/>
<path opacity="0.72" d="M60.159 55.3553L27.7917 87.6423L46.2984 106.073L97.024 55.3553H60.159Z" fill="white"/>
<path opacity="0.72" d="M60.159 0.0705882L60.0884 0L0 60L18.5067 78.5012L96.9534 0.0705882H60.159Z" fill="white"/>
<path d="M146.366 26.1176H186.86V34.0518H154.585V58.0165H183.732V65.8376H154.585V96.1906H146.366V26.1176Z" fill="white"/>
<path d="M195.418 26.1176H203.736V96.1412H195.418V26.1176Z" fill="white"/>
<path d="M217.879 92.4282C214.715 88.9082 213.134 83.9835 213.134 77.6541V46.2706H221.444V76.3906C221.444 81.1577 222.522 84.6471 224.678 86.8588C226.834 89.0706 229.734 90.1788 233.377 90.1835C236.042 90.2263 238.655 89.4421 240.855 87.9388C243.029 86.4537 244.781 84.4301 245.939 82.0659C247.141 79.7023 247.763 77.0867 247.753 74.4353V46.2706H256.071V96.1482H248.142V88.9412H247.753C246.196 91.6009 243.924 93.7703 241.194 95.2024C238.276 96.8752 234.969 97.7515 231.605 97.7435C225.627 97.72 221.051 95.9482 217.879 92.4282Z" fill="white"/>
<path d="M280.452 96.7059C278.835 96.1136 277.353 95.2013 276.096 94.0235C274.812 92.7924 273.812 91.2965 273.166 89.64C272.462 87.6931 272.129 85.6317 272.184 83.5624V53.8024H263.478V46.2706H272.184V32.1882H280.495V46.2706H292.625V53.8024H280.495V81.5929C280.495 84.4165 281.017 86.4565 282.062 87.7906C283.3 89.2588 285.094 89.9929 287.443 89.9929C289.391 89.9756 291.294 89.3972 292.922 88.3271V96.4447C291.969 96.8895 290.966 97.2188 289.935 97.4259C288.659 97.6393 287.367 97.7361 286.073 97.7153C284.153 97.7263 282.248 97.3842 280.452 96.7059Z" fill="white"/>
<path d="M314.825 96.7059C313.21 96.1119 311.731 95.1997 310.476 94.0235C309.19 92.7926 308.188 91.2968 307.538 89.64C306.837 87.6926 306.507 85.6312 306.564 83.5623V53.8024H297.858V46.2706H306.564V32.1882H314.874V46.2706H327.005V53.8024H314.874V81.5929C314.874 84.4165 315.397 86.4565 316.435 87.7906C317.678 89.2588 319.473 89.9929 321.822 89.9929C323.769 89.9762 325.669 89.3977 327.295 88.3271V96.4447C326.344 96.8904 325.344 97.2199 324.315 97.4259C323.037 97.6392 321.741 97.7361 320.446 97.7153C318.526 97.7238 316.621 97.3817 314.825 96.7059Z" fill="white"/>
<path d="M342.949 94.2847C339.184 92.0158 336.122 88.7493 334.101 84.8471C331.937 80.6614 330.843 76.0053 330.917 71.2941C330.87 66.6907 331.89 62.1388 333.897 57.9953C335.794 54.0632 338.722 50.7188 342.37 48.3176C346.151 45.8738 350.577 44.6152 355.079 44.7035C359.537 44.5917 363.938 45.7234 367.789 47.9718C371.361 50.1327 374.234 53.277 376.064 57.0282C378.048 61.1438 379.037 65.6676 378.952 70.2353C378.966 71.0918 378.867 71.9463 378.656 72.7765H339.235C339.313 76.1544 340.259 79.4554 341.981 82.3624C343.475 84.8481 345.622 86.8769 348.188 88.2282C350.613 89.514 353.316 90.1854 356.061 90.1835C362.453 90.1835 367.377 87.1859 370.832 81.1906L377.893 84.6141C375.867 88.5244 372.847 91.8328 369.138 94.2071C365.452 96.56 361.001 97.7365 355.785 97.7365C351.269 97.7956 346.826 96.6007 342.949 94.2847ZM370.14 65.9224C369.98 63.7376 369.38 61.6078 368.375 59.6612C367.242 57.482 365.532 55.6556 363.432 54.3812C360.874 52.8641 357.932 52.1166 354.959 52.2282C351.284 52.1373 347.72 53.4906 345.032 55.9977C342.244 58.6547 340.376 62.1314 339.701 65.9224H370.14Z" fill="white"/>
<path d="M384.333 46.2706H392.262V54.2894H392.651C393.711 51.4379 395.701 49.0262 398.299 47.4424C400.898 45.6764 403.962 44.7208 407.104 44.6965C409.114 44.6483 411.111 45.016 412.972 45.7765V54.6777C410.773 53.6114 408.354 53.077 405.911 53.1177C403.536 53.1073 401.215 53.8242 399.26 55.1718C397.224 56.5888 395.574 58.4908 394.458 60.7059C393.253 63.0225 392.633 65.5984 392.651 68.2094V96.1483H384.34V46.2706H384.333Z" fill="white"/>
</g>
<defs>
<clipPath id="clip0_29_224">
<rect width="413" height="120" fill="white"/>
</clipPath>
</defs>
</svg>
