<svg width="267" height="80" viewBox="0 0 267 80" fill="none" xmlns="http://www.w3.org/2000/svg">
<mask id="mask0_161_797" style="mask-type:luminance" maskUnits="userSpaceOnUse" x="0" y="0" width="267" height="80">
<path d="M267 0H0V79.378H267V0Z" fill="white"/>
</mask>
<g mask="url(#mask0_161_797)">
<path d="M234.983 78.7549C234.306 78.7512 233.641 78.5758 233.05 78.2449L226.929 74.5869C226.008 74.0769 226.469 73.8919 226.745 73.7999C227.987 73.3829 228.217 73.2899 229.506 72.5499C229.644 72.4569 229.828 72.5029 229.966 72.5959L234.66 75.4209C234.844 75.5129 235.074 75.5129 235.212 75.4209L253.575 64.7229C253.758 64.6309 253.852 64.4459 253.852 64.2139V42.8669C253.852 42.6349 253.758 42.4499 253.575 42.3569L235.212 31.7069C235.028 31.6139 234.798 31.6139 234.66 31.7069L216.298 42.3569C216.114 42.4499 216.022 42.6809 216.022 42.8669V64.2139C216.022 64.3999 216.114 64.6309 216.298 64.7239L221.314 67.6409C224.029 69.0309 225.732 67.4089 225.732 65.7889V44.7189C225.732 44.4409 225.962 44.1629 226.285 44.1629H228.632C228.908 44.1629 229.184 44.3949 229.184 44.7189V65.7889C229.184 69.4469 227.205 71.5769 223.753 71.5769C222.695 71.5769 221.867 71.5769 219.519 70.4199L214.687 67.6409C214.098 67.2955 213.609 66.8017 213.27 66.2086C212.931 65.6156 212.753 64.9441 212.754 64.2609V42.9119C212.754 41.5219 213.491 40.2259 214.687 39.5319L233.05 28.8349C234.2 28.1859 235.765 28.1859 236.915 28.8349L255.278 39.5309C255.868 39.8765 256.356 40.3706 256.695 40.9638C257.034 41.557 257.212 42.2287 257.21 42.9119V64.2599C257.21 65.6499 256.474 66.9459 255.278 67.6409L236.915 78.3379C236.363 78.5699 235.673 78.7549 234.983 78.7549Z" fill="#5FA04E"/>
<path d="M240.69 64.0749C232.635 64.0749 230.978 60.3699 230.978 57.2209C230.978 56.9439 231.208 56.6659 231.53 56.6659H233.923C234.2 56.6659 234.43 56.8509 234.43 57.1289C234.798 59.5829 235.856 60.7869 240.735 60.7869C244.601 60.7869 246.258 59.9069 246.258 57.8239C246.258 56.6199 245.796 55.7399 239.768 55.1379C234.752 54.6279 231.622 53.5169 231.622 49.4879C231.622 45.7379 234.752 43.5139 239.998 43.5139C245.89 43.5139 248.789 45.5519 249.157 49.9979C249.153 50.147 249.106 50.2917 249.02 50.4139C248.926 50.5069 248.789 50.5999 248.649 50.5999H246.21C246.092 50.5953 245.978 50.5521 245.887 50.4767C245.796 50.4014 245.732 50.2982 245.705 50.1829C245.152 47.6359 243.725 46.8029 239.952 46.8029C235.718 46.8029 235.212 48.2839 235.212 49.3959C235.212 50.7379 235.81 51.1559 241.517 51.8959C247.177 52.6369 249.847 53.7019 249.847 57.6839C249.847 61.7599 246.487 64.0749 240.69 64.0749ZM267.2 41.6619C267.2 43.6069 265.588 45.2279 263.654 45.2279C262.711 45.2245 261.809 44.8469 261.144 44.1783C260.48 43.5096 260.108 42.6045 260.111 41.6619C260.109 40.7195 260.48 39.8147 261.145 39.1462C261.809 38.4778 262.712 38.1004 263.654 38.0969C265.542 38.0969 267.2 39.6709 267.2 41.6619ZM260.664 41.6619C260.664 43.3289 261.999 44.6719 263.608 44.6719C265.266 44.6719 266.601 43.2819 266.601 41.6619C266.601 39.9949 265.266 38.6989 263.608 38.6989C262.826 38.7071 262.079 39.0224 261.529 39.5769C260.978 40.1313 260.667 40.8803 260.664 41.6619ZM262.321 39.6709H263.702C264.162 39.6709 265.083 39.6709 265.083 40.7359C265.083 41.4759 264.621 41.6159 264.344 41.7089C264.898 41.7549 264.943 42.1249 264.989 42.6349C265.035 42.9589 265.083 43.5149 265.174 43.6999H264.344C264.344 43.5139 264.207 42.4959 264.207 42.4499C264.162 42.2179 264.07 42.1249 263.794 42.1249H263.103V43.7449H262.321V39.6709ZM263.057 41.4309H263.654C264.162 41.4309 264.253 41.0609 264.253 40.8749C264.253 40.3189 263.885 40.3189 263.654 40.3189H263.012V41.4309H263.057Z" fill="#5FA04E"/>
<path fill-rule="evenodd" clip-rule="evenodd" d="M43.6741 41.954C43.6741 41.12 43.2141 40.334 42.4771 39.916L23.0101 28.572C22.6881 28.387 22.3201 28.294 21.9521 28.248H21.7681C21.4001 28.248 21.0321 28.387 20.7091 28.572L1.19705 39.872C0.831012 40.0817 0.527275 40.3849 0.316945 40.7505C0.106615 41.1162 -0.00274863 41.5312 5.24862e-05 41.953L0.0460525 72.331C0.0460525 72.747 0.276053 73.164 0.644053 73.349C1.01205 73.581 1.47305 73.581 1.79405 73.349L13.3921 66.681C13.753 66.4766 14.0537 66.1807 14.2638 65.8231C14.474 65.4655 14.5861 65.0588 14.5891 64.644V50.428C14.5891 49.595 15.0491 48.808 15.7851 48.391L20.7091 45.52C21.0686 45.2991 21.4841 45.1863 21.9061 45.195C22.3201 45.195 22.7341 45.288 23.0561 45.52L27.9811 48.39C28.3419 48.5946 28.6425 48.8907 28.8525 49.2485C29.0625 49.6063 29.1744 50.0131 29.1771 50.428V64.645C29.1771 65.478 29.6371 66.265 30.3741 66.682L41.8791 73.35C42.2471 73.582 42.7071 73.582 43.0761 73.35C43.4441 73.165 43.6741 72.748 43.6741 72.332V41.954ZM137.465 0.138994C137.096 -0.0460059 136.636 -0.0460059 136.314 0.138994C135.946 0.369994 135.716 0.740994 135.716 1.15799V31.258C135.714 31.4061 135.675 31.5514 135.602 31.6806C135.53 31.8099 135.426 31.9189 135.301 31.998C135.174 32.0659 135.031 32.1015 134.887 32.1015C134.743 32.1015 134.6 32.0659 134.473 31.998L129.595 29.173C129.238 28.9683 128.833 28.8606 128.422 28.8606C128.01 28.8606 127.605 28.9683 127.248 29.173L107.735 40.52C107.374 40.7245 107.074 41.0205 106.864 41.3781C106.654 41.7357 106.542 42.1423 106.539 42.557V65.2C106.539 66.034 106.999 66.821 107.735 67.238L127.248 78.583C127.605 78.7877 128.01 78.8954 128.422 78.8954C128.833 78.8954 129.238 78.7877 129.595 78.583L149.108 67.238C149.469 67.0334 149.77 66.7373 149.979 66.3795C150.189 66.0217 150.301 65.6148 150.304 65.2V8.75199C150.304 7.87199 149.844 7.08499 149.108 6.66799L137.465 0.138994ZM135.67 57.745C135.67 57.977 135.578 58.162 135.394 58.255L128.72 62.145C128.627 62.1906 128.525 62.2143 128.421 62.2143C128.317 62.2143 128.215 62.1906 128.122 62.145L121.449 58.255C121.265 58.162 121.173 57.93 121.173 57.745V49.965C121.173 49.734 121.265 49.549 121.449 49.456L128.122 45.566C128.215 45.5204 128.317 45.4967 128.421 45.4967C128.525 45.4967 128.627 45.5204 128.72 45.566L135.394 49.456C135.578 49.549 135.67 49.78 135.67 49.966V57.745ZM202.398 49.78C203.135 49.363 203.549 48.576 203.549 47.742V42.232C203.549 41.398 203.089 40.612 202.398 40.195L183.023 28.895C182.666 28.6903 182.261 28.5826 181.85 28.5826C181.438 28.5826 181.033 28.6903 180.676 28.895L161.164 40.241C160.803 40.4454 160.502 40.7413 160.292 41.0989C160.082 41.4565 159.97 41.8632 159.967 42.278V64.923C159.967 65.756 160.427 66.543 161.164 66.96L180.538 78.074C181.275 78.49 182.149 78.49 182.839 78.074L194.575 71.498C194.943 71.313 195.173 70.896 195.173 70.479C195.173 70.062 194.943 69.646 194.575 69.461L174.97 58.115C174.602 57.884 174.372 57.513 174.372 57.097V50.012C174.372 49.595 174.602 49.178 174.97 48.992L181.091 45.474C181.27 45.361 181.477 45.301 181.689 45.301C181.901 45.301 182.108 45.361 182.287 45.474L188.408 48.993C188.776 49.224 189.006 49.595 189.006 50.012V55.569C189.006 55.985 189.236 56.402 189.605 56.587C189.973 56.819 190.433 56.819 190.801 56.587L202.398 49.78Z" fill="white"/>
<path fill-rule="evenodd" clip-rule="evenodd" d="M181.551 48.7159C181.619 48.6709 181.7 48.647 181.781 48.647C181.863 48.647 181.944 48.6709 182.012 48.7159L185.739 50.8919C185.877 50.9839 185.969 51.1229 185.969 51.3089V55.6609C185.969 55.7442 185.948 55.8262 185.908 55.8992C185.868 55.9722 185.81 56.0337 185.739 56.0779L182.012 58.2549C181.944 58.2998 181.863 58.3238 181.781 58.3238C181.7 58.3238 181.619 58.2998 181.551 58.2549L177.824 56.0779C177.753 56.0337 177.695 55.9722 177.655 55.8992C177.615 55.8262 177.594 55.7442 177.594 55.6609V51.3099C177.594 51.1249 177.686 50.9849 177.824 50.8929L181.551 48.7159Z" fill="#5FA04E"/>
<path d="M76.301 29.0449C75.9436 28.84 75.5389 28.7322 75.127 28.7322C74.7151 28.7322 74.3103 28.84 73.953 29.0449L54.579 40.2969C53.842 40.7139 53.428 41.5009 53.428 42.3349V64.8859C53.428 65.7199 53.888 66.5069 54.578 66.9239L73.953 78.1769C74.3103 78.3818 74.7151 78.4896 75.127 78.4896C75.5389 78.4896 75.9436 78.3818 76.301 78.1769L95.675 66.9239C96.412 66.5069 96.825 65.7199 96.825 64.8859V42.3349C96.825 41.5009 96.365 40.7149 95.675 40.2969L76.301 29.0449Z" fill="url(#paint0_linear_161_797)"/>
<mask id="mask1_161_797" style="mask-type:luminance" maskUnits="userSpaceOnUse" x="53" y="28" width="44" height="51">
<path d="M76.301 29.0449C75.9436 28.84 75.5389 28.7322 75.127 28.7322C74.7151 28.7322 74.3103 28.84 73.953 29.0449L54.579 40.2969C53.842 40.7139 53.428 41.5009 53.428 42.3349V64.8859C53.428 65.7199 53.888 66.5069 54.578 66.9239L73.953 78.1769C74.3103 78.3818 74.7151 78.4896 75.127 78.4896C75.5389 78.4896 75.9436 78.3818 76.301 78.1769L95.675 66.9239C96.412 66.5069 96.825 65.7199 96.825 64.8859V42.3349C96.825 41.5009 96.365 40.7149 95.675 40.2969L76.301 29.0449Z" fill="white"/>
</mask>
<g mask="url(#mask1_161_797)">
<path d="M75.1271 27.5808L96.6331 40.5758L75.1281 79.7008L53.5811 66.6828L75.1271 27.5808Z" fill="url(#paint1_linear_161_797)"/>
</g>
<mask id="mask2_161_797" style="mask-type:luminance" maskUnits="userSpaceOnUse" x="53" y="28" width="44" height="51">
<path d="M76.301 29.0449C75.9436 28.84 75.5389 28.7322 75.127 28.7322C74.7151 28.7322 74.3103 28.84 73.953 29.0449L54.579 40.2969C53.842 40.7139 53.428 41.5009 53.428 42.3349V64.8859C53.428 65.7199 53.888 66.5069 54.578 66.9239L73.953 78.1769C74.3103 78.3818 74.7151 78.4896 75.127 78.4896C75.5389 78.4896 75.9436 78.3818 76.301 78.1769L95.675 66.9239C96.412 66.5069 96.825 65.7199 96.825 64.8859V42.3349C96.825 41.5009 96.365 40.7149 95.675 40.2969L76.301 29.0449Z" fill="white"/>
</mask>
<g mask="url(#mask2_161_797)">
<path d="M75.1271 27.5808L53.5811 40.5758L75.1271 79.7008L96.6331 66.6828L75.1271 27.5808Z" fill="url(#paint2_linear_161_797)"/>
</g>
</g>
<defs>
<linearGradient id="paint0_linear_161_797" x1="83.758" y1="37.1879" x2="68.328" y2="73.3279" gradientUnits="userSpaceOnUse">
<stop stop-color="#3F8B3D"/>
<stop offset="0.64" stop-color="#3F873F"/>
<stop offset="0.93" stop-color="#3DA92E"/>
<stop offset="1" stop-color="#3DAE2B"/>
</linearGradient>
<linearGradient id="paint1_linear_161_797" x1="72.2281" y1="55.4278" x2="121.428" y2="29.0278" gradientUnits="userSpaceOnUse">
<stop offset="0.14" stop-color="#3F873F"/>
<stop offset="0.4" stop-color="#52A044"/>
<stop offset="0.71" stop-color="#64B749"/>
<stop offset="0.91" stop-color="#6ABF4B"/>
</linearGradient>
<linearGradient id="paint2_linear_161_797" x1="53.6781" y1="53.1278" x2="97.4281" y2="53.1278" gradientUnits="userSpaceOnUse">
<stop offset="0.09" stop-color="#6ABF4B"/>
<stop offset="0.29" stop-color="#64B749"/>
<stop offset="0.6" stop-color="#52A044"/>
<stop offset="0.86" stop-color="#3F873F"/>
</linearGradient>
</defs>
</svg>
