<svg width="117" height="133" viewBox="0 0 117 133" fill="none" xmlns="http://www.w3.org/2000/svg">
<path d="M11.5855 118.773L1 2H115.361L104.775 118.773L58.0859 132L11.5855 118.773ZM96.2692 112.538L105.153 12.3924H58.464V122.741L96.2692 112.538ZM53.9274 27.1308H42.5858L42.3968 87.0291L20.2807 80.9826V94.5872L53.9274 103.657V27.1308Z" fill="#D4B830"/>
<path opacity="0.986" d="M20.2808 94.5872V80.9826C20.2808 80.9826 34.4577 84.8561 42.3968 87.0291L42.5859 27.1308L53.9274 27.1308V103.657L20.2808 94.5872Z" fill="#EBEBEB"/>
<path d="M58.4639 12.3925H105.153L96.2691 112.538L58.4639 122.741V12.3925ZM93.8118 95.7209L96.8362 58.3082L74.153 60.7645V40.7355H98.3484L99.4826 27.1308H63.0005V77.0145L85.3056 73.2355L85.1166 84.1948L63.0005 90.2413V103.657L93.8118 95.7209Z" fill="#FDD83C"/>
<path d="M85.1166 84.1948L63.0005 90.2413V103.657L93.8118 95.721L96.8362 58.3082L74.153 60.7646V40.7355H98.3484L99.4826 27.1308H63.0005V77.0146L85.3056 73.2355L85.1166 84.1948Z" fill="white"/>
</svg>
