<svg width="160" height="155" viewBox="0 0 160 155" fill="none" xmlns="http://www.w3.org/2000/svg">
<g clip-path="url(#clip0_189_345)">
<path fill-rule="evenodd" clip-rule="evenodd" d="M79.9998 0C35.8159 0 0 35.5164 0 79.3308C0 114.379 22.9199 144.104 54.7118 154.616C58.7118 155.346 60.1678 152.894 60.1678 150.792C60.1678 148.912 60.0958 143.906 60.0558 137.282C37.7999 142.082 33.1039 126.628 33.1039 126.628C29.4719 117.441 24.2239 114.998 24.2239 114.998C16.96 110.079 24.7759 110.175 24.7759 110.175C32.7999 110.73 37.0239 118.362 37.0239 118.362C44.1599 130.499 55.7518 126.993 60.3038 124.962C61.0398 119.829 63.1038 116.331 65.3918 114.347C47.6319 112.34 28.9519 105.518 28.9519 75.0708C28.9519 66.3999 32.0719 59.2998 37.1999 53.7466C36.3759 51.7396 33.6319 43.6558 37.9839 32.724C37.9839 32.724 44.7039 30.582 59.9838 40.8633C66.5182 39.1793 73.2486 38.3604 79.9998 38.4279C86.7997 38.4596 93.6397 39.3402 100.032 41.1013C115.304 30.82 122.008 32.954 122.008 32.954C126.376 43.8858 123.632 51.9776 122.808 53.9846C127.928 59.5378 131.048 66.6379 131.048 75.3088C131.048 105.835 112.344 112.555 94.5197 114.522C97.3917 116.973 99.9437 121.82 99.9437 129.238C99.9437 139.852 99.8477 148.428 99.8477 151.03C99.8477 153.156 101.288 155.631 105.352 154.854C121.313 149.564 135.186 139.418 144.997 125.859C154.808 112.301 160.058 96.019 160 79.3308C160 35.5164 124.184 0 79.9998 0Z" fill="white"/>
</g>
<defs>
<clipPath id="clip0_189_345">
<rect width="160" height="155" fill="white"/>
</clipPath>
</defs>
</svg>
