<svg width="160" height="160" viewBox="0 0 160 160" fill="none" xmlns="http://www.w3.org/2000/svg">
<path d="M13.3333 103.733L33.3333 120V40L13.3333 56.2V103.733Z" fill="#669DF6"/>
<path d="M13.3333 66.6667L33.3333 53.3333V40L13.3333 66.6667Z" fill="#4285F4"/>
<path d="M33.3333 120V106.667L13.3333 93.3333L33.3333 120Z" fill="#4285F4"/>
<path d="M53.3333 133.333L13.3333 93.3333V120L39.9999 146.667L53.3333 133.333Z" fill="#AECBFA"/>
<path d="M39.9332 13.3999L13.3333 39.9999L13.3999 66.6666L53.2666 26.7332L39.9332 13.3999Z" fill="#AECBFA"/>
<path d="M146.667 56.3333L126.667 40.0667V120.067L146.667 103.933V56.3333Z" fill="#669DF6"/>
<path d="M146.667 93.3999L126.667 106.733V120.067L146.667 93.3999Z" fill="#4285F4"/>
<path d="M126.667 40.0667V53.4L146.667 66.7333L126.667 40.0667Z" fill="#4285F4"/>
<path d="M106.667 26.7332L146.667 66.7332V40.0666L120 13.3999L106.667 26.7332Z" fill="#AECBFA"/>
<path d="M120.066 146.667L146.666 120.067L146.6 93.3999L106.733 133.333L120.066 146.667Z" fill="#AECBFA"/>
<path d="M53.3332 86.6666C57.0151 86.6666 59.9998 83.6818 59.9998 79.9999C59.9998 76.318 57.0151 73.3333 53.3332 73.3333C49.6513 73.3333 46.6665 76.318 46.6665 79.9999C46.6665 83.6818 49.6513 86.6666 53.3332 86.6666Z" fill="#AECBFA"/>
<path d="M79.9999 86.6666C83.6818 86.6666 86.6666 83.6818 86.6666 79.9999C86.6666 76.318 83.6818 73.3333 79.9999 73.3333C76.318 73.3333 73.3333 76.318 73.3333 79.9999C73.3333 83.6818 76.318 86.6666 79.9999 86.6666Z" fill="#AECBFA"/>
<path d="M106.6 86.6666C110.282 86.6666 113.267 83.6818 113.267 79.9999C113.267 76.318 110.282 73.3333 106.6 73.3333C102.918 73.3333 99.9333 76.318 99.9333 79.9999C99.9333 83.6818 102.918 86.6666 106.6 86.6666Z" fill="#AECBFA"/>
</svg>
