<svg width="117" height="130" viewBox="0 0 117 130" fill="none" xmlns="http://www.w3.org/2000/svg">
<g clip-path="url(#clip0_27_270)">
<path d="M116.803 38.1209C116.802 35.9407 116.33 34.0141 115.375 32.3607C114.437 30.7348 113.033 29.3721 111.149 28.2946C95.5986 19.4388 80.033 10.6101 64.4876 1.74524C60.2966 -0.644414 56.2331 -0.557296 52.0732 1.86666C45.8837 5.47191 14.8946 23.007 5.66033 28.2896C1.85738 30.464 0.00685547 33.7916 0.00594141 38.1168C0 55.9264 0.00594141 73.7355 0 91.5455C0 93.6778 0.452918 95.5669 1.36561 97.1955C2.30389 98.8706 3.728 100.271 5.6553 101.373C14.8901 106.655 45.8832 124.189 52.0714 127.795C56.2331 130.221 60.2966 130.307 64.4889 127.917C80.0349 119.051 95.6013 110.223 111.154 101.367C113.081 100.266 114.506 98.8647 115.444 97.191C116.355 95.5624 116.809 93.6733 116.809 91.5405C116.809 91.5405 116.809 55.9309 116.803 38.1209Z" fill="#A179DC"/>
<path d="M58.5833 64.6576L1.36572 97.1955C2.30401 98.8706 3.72812 100.271 5.65542 101.373C14.8902 106.655 45.8833 124.189 52.0715 127.795C56.2332 130.22 60.2967 130.307 64.4891 127.917C80.035 119.051 95.6015 110.223 111.154 101.367C113.082 100.266 114.506 98.8647 115.444 97.1909L58.5833 64.6576Z" fill="#280068"/>
<path d="M116.803 38.1209C116.802 35.9407 116.33 34.0141 115.375 32.3607L58.5833 64.6576L115.444 97.1909C116.355 95.5623 116.808 93.6733 116.809 91.5405C116.809 91.5405 116.809 55.9309 116.803 38.1209Z" fill="#390091"/>
<path d="M92.271 52.4938V58.5757H98.4289V52.4938H101.508V58.5757H107.666V61.6166H101.508V67.6985H107.666V70.7394H101.508V76.8213H98.4289V70.7394H92.271V76.8213H89.1921V70.7394H83.0342V67.6985H89.1921V61.6166H83.0342V58.5757H89.1921V52.4938H92.271ZM98.4289 61.6166H92.271V67.6985H98.4289V61.6166Z" fill="white"/>
<path d="M58.7087 21.9492C74.7705 21.9492 88.7938 30.5645 96.3049 43.3703L96.2316 43.2471L77.334 53.9938C73.6108 47.7676 66.7851 43.5658 58.9554 43.4793L58.7087 43.4779C46.7685 43.4779 37.0884 53.0381 37.0884 64.8309C37.0884 68.6874 38.1294 72.3023 39.9398 75.4247C43.6665 81.8503 50.6722 86.1843 58.7087 86.1843C66.7949 86.1843 73.8405 81.7953 77.5483 75.3009L77.4582 75.4568L96.3274 86.2531C88.8986 98.9505 75.0675 107.539 59.1924 107.71L58.7087 107.713C42.5963 107.713 28.5331 99.0447 21.0409 86.1712C17.3833 79.8865 15.2905 72.6004 15.2905 64.8309C15.2905 41.1483 34.7291 21.9492 58.7087 21.9492Z" fill="white"/>
</g>
<defs>
<clipPath id="clip0_27_270">
<rect width="117" height="130" fill="white"/>
</clipPath>
</defs>
</svg>
