<svg width="200" height="77" viewBox="0 0 200 77" fill="none" xmlns="http://www.w3.org/2000/svg">
<path d="M54.193 24.033H52.6107C52.2943 24.033 52.0569 24.2701 52.0569 24.5864V64.9046L18.5126 24.1911C18.3544 24.033 18.117 23.9539 17.8797 24.033C17.6424 24.112 17.4841 24.3492 17.4841 24.5864V27.4324C17.4841 27.5905 17.5632 27.6695 17.6424 27.7486L52.5316 70.2013C52.6107 70.3595 52.7689 70.4385 52.9272 70.4385H54.1139C54.4303 70.4385 54.6677 70.2013 54.6677 69.8851V24.5864C54.7468 24.2701 54.5094 24.033 54.193 24.033Z" fill="#353535"/>
<path d="M19.7784 42.769H18.0379C17.7215 42.769 17.4841 43.0062 17.4841 43.3224V69.7269C17.4841 70.0432 17.7215 70.2803 18.0379 70.2803H19.7784C20.0949 70.2803 20.3322 70.0432 20.3322 69.7269V43.3224C20.3322 43.0062 20.0158 42.769 19.7784 42.769Z" fill="#353535"/>
<path d="M7.75328 38.1838H6.09188C5.77543 38.1838 5.53809 38.421 5.53809 38.7372V69.6479C5.53809 69.9641 5.77543 70.2013 6.09188 70.2013H7.75328C8.06973 70.2013 8.30707 69.9641 8.30707 69.6479V38.7372C8.30707 38.421 8.06973 38.1838 7.75328 38.1838Z" fill="#353535"/>
<path d="M6.09188 23.9539H7.75328C8.06973 23.9539 8.30707 24.191 8.30707 24.5072V34.3892C8.30707 34.7054 8.06973 34.9426 7.75328 34.9426H6.09188C5.77543 34.9426 5.53809 34.7054 5.53809 34.3892V24.5072C5.53809 24.191 5.77543 23.9539 6.09188 23.9539Z" fill="#353535"/>
<path d="M100.712 23.9539H98.8924C98.5759 23.9539 98.3386 24.191 98.3386 24.5072V52.9672C98.3386 61.0309 91.2975 67.5925 82.7531 67.5925C74.2088 67.5925 67.0886 60.9518 67.0886 52.9672V24.5072C67.0886 24.191 66.8513 23.9539 66.5348 23.9539H64.7152C64.3987 23.9539 64.1614 24.191 64.1614 24.5072V52.9672C64.1614 62.5329 72.4683 70.3594 82.7531 70.3594C93.038 70.3594 101.266 62.5329 101.266 52.9672V24.5072C101.266 24.191 101.028 23.9539 100.712 23.9539Z" fill="#353535"/>
<path d="M139.478 46.8799C145.412 43.5596 147.468 36.1284 144.146 30.1992C142.01 26.3255 137.896 23.9539 133.465 23.9539H110.839C110.522 23.9539 110.285 24.191 110.285 24.5072V69.727C110.285 70.0432 110.522 70.2803 110.839 70.2803H135.127C141.93 70.2803 147.389 64.8255 147.389 58.1058C147.468 53.5206 144.146 48.9354 139.478 46.8799ZM113.133 48.461H133.782C139.874 48.461 144.62 53.5996 144.62 58.0268C144.62 63.2444 140.348 67.4344 135.206 67.4344H113.133V48.461ZM113.133 45.615V26.7999H133.465C138.687 26.7999 142.88 30.9898 142.88 36.2075C142.88 41.4251 138.687 45.615 133.465 45.615H113.133Z" fill="#353535"/>
<path d="M173.18 5.61304C168.829 5.69209 165.348 9.17053 165.269 13.5186C165.269 17.8666 168.829 21.4241 173.18 21.4241C177.532 21.4241 181.092 17.8666 181.092 13.5186C181.013 9.17053 177.453 5.69209 173.18 5.61304ZM176.345 13.5186C176.345 15.2578 174.921 16.7599 173.101 16.7599C171.361 16.7599 169.858 15.3369 169.858 13.5186C169.858 11.7794 171.282 10.2773 173.101 10.2773C174.842 10.1983 176.266 11.6213 176.345 13.3605C176.424 13.4395 176.424 13.4395 176.345 13.5186Z" fill="#80C2AF"/>
<path d="M158.94 25.3769C158.94 24.5863 159.573 23.9539 160.364 23.9539H185.918C186.709 24.0329 187.263 24.6654 187.263 25.4559C187.184 26.1674 186.63 26.7208 185.918 26.7999H160.364C159.573 26.7999 158.94 26.1674 158.94 25.3769Z" fill="#353535"/>
<path d="M193.671 69.3316L173.734 30.8316C173.576 30.5154 173.18 30.3573 172.864 30.5154C172.706 30.5945 172.627 30.6735 172.548 30.8316L152.69 69.3316C152.453 69.806 152.532 70.2803 153.323 70.2803H155.222C155.459 70.2803 155.696 70.1222 155.855 69.885L172.943 36.9189C173.022 36.7608 173.26 36.6027 173.497 36.7608C173.576 36.7608 173.655 36.8398 173.655 36.9189L190.744 69.885C190.823 70.1222 191.06 70.2803 191.377 70.2803H193.275C193.829 70.2803 193.908 69.7269 193.671 69.3316Z" fill="#353535"/>
</svg>
