<svg width="160" height="155" viewBox="0 0 160 155" fill="none" xmlns="http://www.w3.org/2000/svg">
<g clip-path="url(#clip0_161_837)">
<path d="M135.269 41.2293C128.581 41.2293 122.518 43.8887 118.067 48.2018L89.8403 27.9899C90.0166 27.2518 90.1197 26.4855 90.1197 25.693C90.1197 20.2299 85.691 15.8005 80.2272 15.8005C74.7641 15.8005 70.3347 20.2299 70.3347 25.693C70.3347 31.1568 74.7641 35.5855 80.2272 35.5855C82.1403 35.5855 83.9203 35.033 85.4341 34.093L119.987 59.238C122.68 53.6193 128.622 49.2443 135.269 49.2443C144.501 49.2443 151.985 56.728 151.985 65.9599C151.985 73.3374 147.206 79.5987 140.575 81.8162L142.843 89.5093C152.797 86.3105 160 76.9768 160 65.9599C160 52.3018 148.928 41.2293 135.269 41.2293Z" fill="#0A7BFF"/>
<path d="M55.9781 17.2059C53.9587 23.5634 54.6556 30.1309 57.4112 35.6652L29.6737 56.394C29.0249 56.004 28.3274 55.6746 27.5743 55.4352C22.3806 53.7852 16.8324 56.6584 15.1831 61.8521C13.5331 67.0459 16.4062 72.594 21.5993 74.2434C26.7931 75.8934 32.3412 73.0209 33.9912 67.8271C34.5687 66.0084 34.5812 64.1496 34.1443 62.4271L68.4831 37.1727C63.9549 32.9152 61.5899 25.9459 63.5968 19.6265C66.3849 10.8502 75.7599 5.99523 84.5362 8.78336C91.5493 11.0109 96.0581 17.4452 96.1643 24.419L104.162 24.5859C104.127 14.1577 97.4293 4.49086 86.9562 1.16398C73.9724 -2.96039 60.1024 4.22148 55.9781 17.2059Z" fill="#EB3D00"/>
<path d="M10.1651 84.0549C15.5464 87.9818 21.9739 89.4193 28.0676 88.5911L39.0101 121.294C38.4389 121.779 37.9101 122.331 37.4482 122.962C34.267 127.322 35.252 133.457 39.6482 136.665C44.0445 139.873 50.187 138.939 53.3682 134.579C56.5501 130.219 55.5651 124.084 51.1689 120.876C49.6295 119.753 47.8757 119.149 46.1107 119.011L32.9489 78.6561C27.5095 81.5586 20.1814 81.5618 14.832 77.6586C7.40386 72.238 5.73948 61.8718 11.1151 54.5043C15.4114 48.6168 22.9026 46.4261 29.5295 48.5493L32.1845 41.0786C22.3126 37.7868 11.0807 41.0068 4.66573 49.798C-3.28739 60.698 -0.825518 76.0355 10.1651 84.0549Z" fill="#00BCD4"/>
<path d="M136.781 122.487C134.743 116.181 130.375 111.277 124.931 108.4L135.491 75.594C136.244 75.534 137.003 75.3965 137.753 75.154C142.932 73.4809 145.781 67.9478 144.117 62.7965C142.453 57.644 136.905 54.824 131.726 56.4971C126.548 58.1696 123.698 63.7028 125.363 68.8546C125.946 70.6584 127.011 72.1678 128.363 73.3071L115.054 113.591C121.201 114.41 127.158 118.673 129.183 124.942C131.996 133.647 127.181 142.997 118.431 145.823C111.438 148.083 104.046 145.493 99.9244 139.919L93.3225 144.414C99.3869 152.82 110.429 156.755 120.872 153.382C133.819 149.199 140.941 135.367 136.781 122.487Z" fill="#86C351"/>
<path d="M60.1705 148.95C65.5355 145.024 68.8392 139.333 69.8786 133.259L104.386 132.908C104.679 133.603 105.045 134.278 105.51 134.914C108.717 139.297 114.87 140.25 119.253 137.044C123.636 133.837 124.589 127.684 121.383 123.301C118.176 118.918 112.024 117.964 107.64 121.171C106.106 122.294 105.002 123.781 104.339 125.424L61.8605 125.533C62.9974 131.621 60.7992 138.618 55.4661 142.52C48.0599 147.939 37.663 146.328 32.2442 138.921C27.9142 133.003 28.0736 125.174 32.0911 119.503L25.7561 114.663C19.6486 123.071 19.3486 134.787 25.8142 143.625C33.8311 154.583 49.213 156.967 60.1705 148.95Z" fill="#9032E9"/>
</g>
<defs>
<clipPath id="clip0_161_837">
<rect width="160" height="155" fill="white"/>
</clipPath>
</defs>
</svg>
