<svg width="160" height="160" viewBox="0 0 160 160" fill="none" xmlns="http://www.w3.org/2000/svg">
<path d="M126.667 0H33.3333C14.9267 0 0 14.9267 0 33.3333V126.667C0 145.073 14.9267 160 33.3333 160H126.667C145.08 160 160 145.073 160 126.667V33.3333C160 14.9267 145.08 0 126.667 0ZM53.3333 126.667H33.3333V53.3333H53.3333V126.667ZM43.3333 44.88C36.8933 44.88 31.6667 39.6133 31.6667 33.12C31.6667 26.6267 36.8933 21.36 43.3333 21.36C49.7733 21.36 55 26.6267 55 33.12C55 39.6133 49.78 44.88 43.3333 44.88ZM133.333 126.667H113.333V89.3067C113.333 66.8533 86.6667 68.5533 86.6667 89.3067V126.667H66.6667V53.3333H86.6667V65.1C95.9733 47.86 133.333 46.5867 133.333 81.6067V126.667Z" fill="white"/>
</svg>
