<svg width="130" height="76" viewBox="0 0 130 76" fill="none" xmlns="http://www.w3.org/2000/svg">
<g clip-path="url(#clip0_27_214)">
<mask id="mask0_27_214" style="mask-type:luminance" maskUnits="userSpaceOnUse" x="0" y="0" width="130" height="76">
<path d="M0.392578 0.47393H129.537V75.62H0.392578V0.47393Z" fill="white"/>
</mask>
<g mask="url(#mask0_27_214)">
<path d="M129.165 72.7753C129.125 72.5112 129.083 72.2493 129.04 71.9897C127.923 65.2577 125.744 58.7449 122.586 52.6934C121.194 50.0278 119.619 47.4613 117.873 45.0123C115.741 42.0247 113.36 39.2229 110.755 36.6369C107.289 33.1917 103.445 30.1478 99.2963 27.563C99.3202 27.5209 99.3445 27.4788 99.369 27.4366C100.672 25.1891 101.976 22.9412 103.279 20.6931L107.102 14.1076C108.018 12.5314 108.933 10.9545 109.846 9.37681C110.063 9.00222 110.235 8.61653 110.363 8.21974C110.621 7.41512 110.705 6.56475 110.609 5.72521C110.513 4.88566 110.239 4.07618 109.805 3.35061C109.301 2.50748 108.593 1.80358 107.747 1.30288C106.976 0.847161 106.113 0.569939 105.221 0.491645C104.538 0.433791 103.851 0.493291 103.189 0.667555C102.435 0.867286 101.728 1.2135 101.109 1.68636C100.49 2.15922 99.9699 2.74943 99.5794 3.4232C98.6637 5.00012 97.7491 6.57705 96.8357 8.15398L93.0127 14.7395C91.7101 16.9888 90.4041 19.2338 89.1015 21.483C88.959 21.7278 88.8165 21.974 88.6739 22.2217C88.4755 22.1431 88.2805 22.0645 88.0821 21.9894C80.8996 19.2525 73.1056 17.7556 64.9592 17.7556C64.7368 17.755 64.5145 17.7562 64.2921 17.759C57.2444 17.8228 50.2545 19.0351 43.5981 21.3481C42.8472 21.61 42.1037 21.8855 41.3676 22.1747C41.2342 21.9447 41.1011 21.7153 40.9682 21.4864C39.6648 19.2377 38.3611 16.9899 37.0571 14.7429L33.2341 8.15654C32.3184 6.58028 31.4038 5.00335 30.4904 3.42576C29.9261 2.45259 29.0958 1.66008 28.0967 1.14105C27.0976 0.622013 25.9711 0.397937 24.8491 0.49506C23.9562 0.570446 23.0922 0.847872 22.3226 1.3063C20.988 2.09789 20.0184 3.38132 19.6226 4.88C19.2186 6.40041 19.4348 8.0187 20.2238 9.38023L22.9675 14.111L26.7905 20.6974C28.0931 22.9467 29.3991 25.1916 30.7016 27.4409C30.7102 27.4597 30.723 27.4785 30.7324 27.4973C26.5421 30.0995 22.6609 33.168 19.1633 36.6437C16.5595 39.2311 14.1786 42.0328 12.0458 45.0191C10.2973 47.4665 8.7226 50.0331 7.33329 52.7002C4.17544 58.7519 1.9972 65.2646 0.879476 71.9965C0.679738 73.2005 0.514037 74.4099 0.382568 75.6232H129.527C129.424 74.6736 129.3 73.7264 129.156 72.7822L129.165 72.7753Z" fill="#34A853"/>
<path d="M98.5478 57.7796C101.132 56.0615 101.508 52.0856 99.3868 48.8987C97.2657 45.7135 93.4521 44.524 90.8684 46.243C88.2846 47.9611 87.9092 51.937 90.0302 55.1239C92.1504 58.309 95.964 59.4986 98.5478 57.7796ZM39.9939 55.1333C42.115 51.9481 41.7386 47.9713 39.1557 46.2524C36.5711 44.5343 32.7575 45.7238 30.6373 48.9098C28.5171 52.0958 28.8917 56.0717 31.4755 57.7907C34.0592 59.5097 37.8728 58.3201 39.9939 55.1333Z" fill="#202124"/>
</g>
</g>
<defs>
<clipPath id="clip0_27_214">
<rect width="130" height="76" fill="white"/>
</clipPath>
</defs>
</svg>
